<?xml version="1.0" encoding="UTF-8"?>
<svg id="Capa_1" data-name="Capa 1" xmlns="http://www.w3.org/2000/svg" xmlns:xlink="http://www.w3.org/1999/xlink" viewBox="0 0 679.19 654.08">
  <defs>
    <style>
      .cls-1 {
        fill: #37f;
        font-family: ClashDisplayVariable-Bold, 'Clash Display Variable';
        font-size: 200px;
        font-variation-settings: 'wght' 700;
        font-weight: 700;
      }

      .cls-2 {
        fill: #0072e9;
      }

      .cls-3 {
        fill: #0099fe;
      }

      .cls-4 {
        fill: #0077fe;
      }

      .cls-5 {
        fill: #0058dc;
      }

      .cls-6 {
        fill: url(#Degradado_sin_nombre_47);
      }

      .cls-7 {
        fill: #0090f3;
      }

      .cls-8 {
        fill: #008df2;
      }
    </style>
    <linearGradient id="Degradado_sin_nombre_47" data-name="Degradado sin nombre 47" x1="454.57" y1="410.69" x2="245.68" y2="48.88" gradientUnits="userSpaceOnUse">
      <stop offset=".06" stop-color="#94aaff"/>
      <stop offset=".19" stop-color="#6a95ff"/>
      <stop offset=".25" stop-color="#5f8fff"/>
      <stop offset=".4" stop-color="#4681ff"/>
      <stop offset=".53" stop-color="#3879ff"/>
      <stop offset=".64" stop-color="#37f"/>
    </linearGradient>
  </defs>
  <text class="cls-1" transform="translate(0 605.88)"><tspan x="0" y="0">astren</tspan></text>
  <path class="cls-4" d="M457.69,404.97l2.16-2.16c-.73.43-1.35,1.83-2.16,2.16Z"/>
  <path class="cls-3" d="M426.63,266.77h-2.16c.55-1.53.39-3.28,2.16-4.32.26,1.33-.23,2.98,0,4.32Z"/>
  <path class="cls-2" d="M428.8,268.94c-.99-.3-1.99-1.18-2.17-2.17,2.11-.23,1.8.83,2.17,2.17Z"/>
  <path class="cls-5" d="M192.99,347.46l-.12-.73c.09.19.12.44.12.73Z"/>
  <path class="cls-7" d="M136.6,115.53l-.7,1.04c.18-.31.41-.66.7-1.04Z"/>
  <path class="cls-6" d="M542.47,134.38c-13.88-10.01-32.18-10.91-48.74-12.54-22.99-2.18-43.8-1.44-64.32-8.02-31.34-10.64-42.36-47.03-54.38-74.79-6.6-15.25-15.42-33.61-31.89-38.24-11.92-3.11-22.86,3.25-30.47,12.97-12.88,17.29-19.66,38.4-28.82,57.79-6.79,15.17-15.04,30.97-30.2,39.04-9.79,5.4-21.14,7.44-32.2,8.62-20.84,2.13-41.78,1.86-62.57,4.47-42.8,4.94-53.99,32.59-21.15,62.88,12.27,11.57,25.41,21.97,38.17,32.96,25.01,21.62,44.27,27.27,64.82-2.43,19.67-29.92,44.6-56.74,76.19-74.19,13.45-7.53,28.58-14.05,44.25-13.44,26.47,1,36.44,22.74,33.76,46.87-2.11,20.82-11.63,40.08-22.17,57.87-18.71,31.02-42.53,59.6-72.35,80.52-4.92,3.38-24.9,16.74-24.86,5.33,1.33-9.84,12.57-22.89,18.96-32.86,9.11-13.71,17.73-28.05,22.4-44.02,5.52-19.85-1.26-30.94-19.97-19.27-10.3,6.31-20.67,15.35-29.81,23.68-15.39,14.34-27.33,26.29-40.08,40.88-8.7,10.05-16.36,20.88-21.61,33.1-7.02,16.66-12.85,39.09-12.59,58.39.07,16.39,8.91,31.22,26.51,30.88,16.16-.48,29.95-10.25,43.56-18.12,71.08-43.65,77.81-53.5,150.03-3.04,10.49,6.88,21.52,14.08,33.99,16.47,23.46,4.25,34.05-12.43,32.79-34.12-1.21-22.15-7.1-43.69-12.14-65.18-4.54-17.93-9.22-38.24.86-55.13,5.08-8.94,12.67-16.26,20.22-23.19,15.95-14.57,32.98-27.5,48.04-42.83,14.15-14.09,25.11-36.12,5.89-51.17l-.15-.11ZM167.88,144.74c.13-.22.83-1.24.66-.97-.1.17-.68,1.02-.68,1l.02-.04ZM225.01,375.6c-.05-.21-.15-.9-.08-.61.05.19.11.67.1.67l-.02-.06Z"/>
  <path class="cls-8" d="M136.6,115.53l-.7,1.04c.18-.31.41-.66.7-1.04Z"/>
</svg>