<?xml version="1.0" encoding="UTF-8"?>
<svg id="Capa_1" xmlns="http://www.w3.org/2000/svg" version="1.1" xmlns:i="http://ns.adobe.com/AdobeIllustrator/10.0/" xmlns:xlink="http://www.w3.org/1999/xlink" viewBox="0 0 810 810">
  <!-- Generator: Adobe Illustrator 29.0.0, SVG Export Plug-In . SVG Version: 2.1.0 Build 186)  -->
  <defs>
    <linearGradient id="Degradado_sin_nombre_17" data-name="Degradado sin nombre 17" x1="187.8653" y1="285.8262" x2="622.1347" y2="285.8262" gradientUnits="userSpaceOnUse">
      <stop offset="0" stop-color="#000"/>
      <stop offset=".0251" stop-color="#040a17"/>
      <stop offset=".0966" stop-color="#102753"/>
      <stop offset=".1676" stop-color="#1b3f88"/>
      <stop offset=".2365" stop-color="#2353b2"/>
      <stop offset=".303" stop-color="#2a62d3"/>
      <stop offset=".3662" stop-color="#2f6eeb"/>
      <stop offset=".4249" stop-color="#3274fa"/>
      <stop offset=".4747" stop-color="#37f"/>
    </linearGradient>
  </defs>
  <g>
    <path d="M88.4146,644.3203c-6.8008,0-12.0605-1.4795-15.7803-4.4404-3.7197-2.959-5.5801-6.999-5.5801-12.1201,0-2.8799.6787-5.4395,2.04-7.6797,1.3594-2.2383,3.48-4.0596,6.3604-5.46,2.8799-1.3984,6.5996-2.3398,11.1602-2.8203l25.7998-2.5195v12.4795l-19.7998,2.2803c-1.041.0811-1.7812.3203-2.2207.7197-.4404.4014-.6592.9209-.6592,1.5605,0,.96.459,1.5801,1.3799,1.8594.918.2812,2.2588.4209,4.0195.4209,3.999,0,7.1592-.2197,9.4805-.6602,2.3193-.4395,3.999-1.2607,5.04-2.46,1.0381-1.2002,1.5596-2.9199,1.5596-5.1602l1.6797-.4805v10.5605h-1.6797c-1.1211,4.2412-3.5605,7.6201-7.3203,10.1396-3.7607,2.5205-8.9209,3.7803-15.4795,3.7803ZM133.5347,643.1201h-21.1201v-13.4404h-1.2002v-21.4795c0-3.0391-.7803-4.9805-2.3398-5.8203-1.5605-.8398-4.3408-1.2598-8.3398-1.2598-3.6807,0-6.2217.4404-7.6201,1.3203-1.4004.8809-2.1006,2.6006-2.1006,5.1602v.4795h-22.5596v-.2402c0-5.3584,1.3989-10.0195,4.2002-13.9795,2.7993-3.96,6.7588-7.0205,11.8799-9.1807,5.1191-2.1592,11.0791-3.2393,17.8799-3.2393,7.0391,0,12.8799,1.1006,17.5205,3.2998,4.6387,2.2012,8.0996,5.3213,10.3799,9.3604,2.2793,4.04,3.4199,8.9004,3.4199,14.5791v34.4404Z" style="fill: #37f;"/>
    <path d="M172.7729,644.3203c-10.6406,0-18.7617-1.96-24.3604-5.8799-5.6006-3.9189-8.3994-9.3604-8.3994-16.3203v-.4805h22.5596v1.2002c0,1.6807.6992,2.7207,2.0996,3.1201,1.3994.4014,4.1406.6006,8.2207.6006,3.9189,0,6.3994-.2197,7.4395-.6602,1.0391-.4395,1.5605-1.1797,1.5605-2.2207,0-.96-.4014-1.6191-1.2002-1.9795-.8008-.3604-2.6006-.6992-5.4004-1.0205l-17.5195-1.9199c-6.2402-.6387-11.001-2.418-14.2803-5.3398-3.2812-2.9189-4.9199-6.9395-4.9199-12.0596,0-3.6006,1.0205-6.9004,3.0605-9.9004,2.0391-3,5.3584-5.4189,9.96-7.2598,4.5986-1.8398,10.6592-2.7598,18.1797-2.7598,7.0391,0,12.9395.8398,17.7002,2.5195,4.7588,1.6797,8.3584,4.1816,10.7998,7.5,2.4395,3.3203,3.6602,7.4609,3.6602,12.4199v.4805h-22.5605v-.7207c0-1.0381-.2207-1.8984-.6602-2.5791-.4404-.6787-1.4004-1.1797-2.8799-1.5-1.4805-.3193-3.7402-.4805-6.7793-.4805-3.6807,0-5.9814.2607-6.9004.7803-.9209.5215-1.3799,1.3408-1.3799,2.46,0,.8008.459,1.4395,1.3799,1.9199.9189.4795,3.1387.9209,6.6602,1.3203l12,1.3193c8.7988.96,14.8799,2.9219,18.2402,5.8799,3.3594,2.9609,5.04,7.002,5.04,12.1201,0,3.7617-1.2207,7.1006-3.6602,10.0205-2.4414,2.9209-5.9814,5.2197-10.6201,6.8994-4.6406,1.6807-10.3203,2.5205-17.04,2.5205Z" style="fill: #37f;"/>
    <path d="M254.7319,601.1201h-48.8398v-18.4805h48.8398v18.4805ZM254.7319,643.1201h-15.8398c-7.5205,0-13.4209-1.8789-17.7002-5.6396-4.2803-3.7598-6.4199-9.5596-6.4199-17.4004v-47.8799h22.5605v44.6396c0,2.4004.459,4.002,1.3799,4.7998.918.8008,2.6582,1.2002,5.2197,1.2002h10.7998v20.2803Z" style="fill: #37f;"/>
    <path d="M282.6919,643.1201h-22.5605v-60.4805h21.1201v17.2803l1.4404.6006v42.5996ZM282.6919,607h-4.2002v-8.5195h3.96c.5586-3.3604,1.6387-6.3193,3.2402-8.8799,1.5996-2.5596,3.7803-4.5605,6.54-6,2.7598-1.4404,6.1387-2.1602,10.1396-2.1602,4.4795,0,8.0791.8994,10.7998,2.6992,2.7188,1.8008,4.6992,4.2607,5.9404,7.3809,1.2393,3.1191,1.8604,6.7197,1.8604,10.7998v12h-22.5605v-7.0801c0-2.5596-.5605-4.3389-1.6797-5.3398-1.1211-1-3.1611-1.5-6.1201-1.5-3.041,0-5.1211.5-6.2402,1.5-1.1211,1.001-1.6797,2.7002-1.6797,5.0996Z" style="fill: #37f;"/>
    <path d="M359.4917,644.3203c-6.8008,0-12.8398-1.041-18.1201-3.1201s-9.4014-5.4395-12.3604-10.0801c-2.9609-4.6387-4.4395-10.7197-4.4395-18.2402,0-6.5586,1.4785-12.1797,4.4395-16.8594,2.959-4.6807,7.0205-8.2803,12.1797-10.8008,5.1602-2.5195,11.1006-3.7793,17.8203-3.7793,6.96,0,13,1.1396,18.1201,3.4199,5.1191,2.2793,9.0791,5.6396,11.8799,10.0801,2.7998,4.4395,4.2002,9.8994,4.2002,16.3799,0,1.04-.0205,1.9795-.0596,2.8193-.042.8408-.1406,1.8213-.3008,2.9404h-53.5195v-11.4004h37.2002l-4.9199,7.0801v-4.1992c0-3.6787-.9414-6.2402-2.8203-7.6807-1.8809-1.4395-5.3008-2.1602-10.2598-2.1602-5.1211,0-8.5801.8008-10.3799,2.4004-1.8008,1.6016-2.7002,4.4814-2.7002,8.6396v5.7607c0,4.2412.9189,7.1211,2.7598,8.6396,1.8389,1.5205,5.3193,2.2803,10.4404,2.2803,4.5596,0,7.6191-.4199,9.1797-1.2607,1.5596-.8398,2.3398-2.1387,2.3398-3.8994v-1.3203h22.5596v1.4404c0,4.4814-1.3604,8.4414-4.0791,11.8799-2.7207,3.4404-6.5615,6.1406-11.5205,8.0996-4.9609,1.96-10.8408,2.9404-17.6396,2.9404Z" style="fill: #37f;"/>
    <path d="M421.7715,643.1201h-22.5601v-60.4805h21.1206v18.6006l1.4395.5996v41.2803ZM469.6523,643.1201h-22.5605v-30.4805c0-4.2393-.9199-7.1396-2.7598-8.6992-1.8418-1.5605-5.2402-2.3398-10.2012-2.3398s-8.2598.7402-9.8984,2.2197c-1.6406,1.4814-2.4609,4.1807-2.4609,8.0996h-2.2793l-1.9199-10.9199h3.959c.4805-3.3604,1.5801-6.5195,3.3008-9.4795,1.7188-2.959,4.2793-5.3799,7.6797-7.2607,3.4004-1.8779,7.7793-2.8193,13.1406-2.8193,5.4395,0,9.9395,1.001,13.5,3,3.5586,2,6.1973,4.7207,7.9199,8.1602,1.7188,3.4404,2.5801,7.3604,2.5801,11.7598v38.7598Z" style="fill: #37f;"/>
    <path d="M515.25,644.3203c-8.4004,0-15.5996-1.6992-21.5996-5.1006-6-3.3994-10.5801-8.1992-13.7402-14.3994-3.1621-6.1992-4.7402-13.5-4.7402-21.9004s1.8398-15.6992,5.5195-21.8994c3.6797-6.1992,9-10.999,15.9609-14.4004,6.959-3.3994,15.3184-5.0996,25.0801-5.0996,9.1191,0,16.9199,1.2803,23.4004,3.8398,6.4785,2.5605,11.4395,6.2207,14.8789,10.9795,3.4395,4.7607,5.1602,10.4609,5.1602,17.1006v.8398h-25.1992v-.8398c0-3.7598-1.3613-6.4199-4.0801-7.9805-2.7207-1.5596-7.6406-2.3398-14.7598-2.3398-5.7617,0-10.2207.54-13.3809,1.6201-3.1621,1.0801-5.3809,3.041-6.6602,5.8799-1.2812,2.8408-1.9199,6.9414-1.9199,12.2998,0,5.2803.5996,9.3604,1.8008,12.2402,1.1992,2.8799,3.2988,4.8604,6.2988,5.9404,3,1.0791,7.2188,1.6191,12.6602,1.6191,6.4805,0,11.3594-.2188,14.6406-.6592,3.2793-.4395,5.459-1.3994,6.5391-2.8809,1.0801-1.4785,1.6211-3.7793,1.6211-6.8994v-4.4404l22.5586-.4795v1.6797l-19.5586,16.9199h-2.6406c-.7207,3.1201-2.0605,6.0811-4.0195,8.8799-1.9609,2.8018-4.8418,5.0811-8.6406,6.8398-3.8008,1.7588-8.8613,2.6406-15.1797,2.6406ZM565.2891,615.7597h-47.5195v-16.5596h47.5195v16.5596ZM565.2891,643.1201h-21v-22.9199l-1.5586-2.5205v-17.3994h22.5586v42.8398Z" style="fill: #37f;"/>
    <path d="M594.5703,643.1201h-22.5605v-80.4004h22.5605v80.4004ZM616.5293,622.8398h-36.959v-20.2793h34.4395c4,0,6.8594-.6006,8.5801-1.8008,1.7188-1.1992,2.5801-3.8789,2.5801-8.04,0-4.0801-.8613-6.7197-2.5801-7.9199-1.7207-1.1992-4.5801-1.7998-8.5801-1.7998h-34.4395v-20.2803h36.959c6.4004,0,11.9199,1.1816,16.5605,3.54,4.6387,2.3613,8.2207,5.7607,10.7402,10.2002,2.5195,4.4404,3.7793,9.8604,3.7793,16.2598,0,6.3213-1.2598,11.7412-3.7793,16.2607-2.5195,4.5205-6.1016,7.9609-10.7402,10.3193-4.6406,2.3613-10.1602,3.54-16.5605,3.54Z" style="fill: #37f;"/>
    <path d="M674.9707,643.1201h-22.5605v-80.4004h46.9199c7.1191,0,13.0801.96,17.8809,2.8809,4.7988,1.9199,8.418,4.7002,10.8594,8.3398,2.4395,3.6406,3.6602,8.0996,3.6602,13.3799,0,4.2412-.7402,7.9014-2.2207,10.9795-1.4805,3.0811-3.8203,5.5615-7.0195,7.4404-3.2012,1.8809-7.3613,3.1406-12.4805,3.7803v1.1992c4.1582,1.041,7.1406,2.5801,8.9395,4.6201,1.8008,2.04,3.4609,4.5811,4.9805,7.6201l9.9609,20.1602h-26.041l-9.5996-19.6797c-.959-1.999-1.9609-3.5586-3-4.6807-1.041-1.1191-2.4004-1.8994-4.0801-2.3398-1.6797-.4385-4.002-.6602-6.959-.6602h-9.2402v27.3604ZM674.9707,583v15.96h24.1191c3.2793,0,5.5996-.4795,6.9609-1.4395,1.3594-.96,2.0391-3.1602,2.0391-6.6006,0-3.1982-.6797-5.3193-2.0391-6.3594-1.3613-1.0391-3.6816-1.5605-6.9609-1.5605h-24.1191Z" style="fill: #37f;"/>
  </g>
  <path d="M526.8978,485.3894l2.1645-2.161c-.7326.4322-1.3532,1.831-2.1645,2.161Z" style="fill: #0077fe;"/>
  <path d="M495.8356,347.1947h-2.16c.55-1.53.39-3.28,2.16-4.3199.2599,1.33-.23,2.98,0,4.3199Z" style="fill: #0099fe;"/>
  <path d="M498.0055,349.3647c-.99-.3-1.99-1.18-2.17-2.17,2.11-.23,1.8.83,2.17,2.17Z" style="fill: #0072e9;"/>
  <path d="M262.1955,427.8847l-.12-.73c.09.19.12.44.12.73Z" style="fill: #0058dc;"/>
  <path d="M205.8055,195.9547l-.7,1.04c.18-.31.41-.66.7-1.04Z" style="fill: #0090f3;"/>
  <path d="M611.6704,214.8063c-13.8764-10.0084-32.1757-10.9052-48.7397-12.5387-22.9942-2.1797-43.7976-1.4406-64.3161-8.0248-31.3395-10.6426-42.3612-47.0295-54.3845-74.7876-6.5992-15.2543-15.4155-33.6139-31.8858-38.2355-11.9181-3.1109-22.8626,3.2487-30.4678,12.9687-12.8836,17.2886-19.6597,38.4032-28.8228,57.7854-6.788,15.1709-15.0355,30.9746-30.2009,39.0388-9.7948,5.4014-21.1443,7.4395-32.1961,8.6185-20.8368,2.1279-41.7762,1.8618-62.5681,4.472-42.8043,4.9408-53.9921,32.5944-21.1487,62.8754,12.2742,11.5747,25.4143,21.9747,38.1704,32.962,25.0115,21.6208,44.2686,27.2706,64.8234-2.4286,19.6708-29.9173,44.6007-56.7392,76.193-74.1938,13.4488-7.5331,28.585-14.0541,44.2516-13.4373,26.4742.9994,36.4421,22.735,33.7551,46.8705-2.1144,20.8203-11.63,40.082-22.1729,57.868-18.7126,31.0194-42.526,59.6046-72.3541,80.5178-4.916,3.3762-24.9036,16.7432-24.8566,5.3261,1.3254-9.8351,12.5688-22.8934,18.9635-32.8616,9.1128-13.7059,17.7269-28.0493,22.4036-44.0212,5.5151-19.8508-1.2561-30.9356-19.9682-19.2737-10.304,6.3085-20.6656,15.3484-29.8081,23.6776-15.3875,14.3445-27.326,26.2923-40.0791,40.8773-8.6975,10.0475-16.3594,20.8847-21.615,33.0953-7.0173,16.6576-12.8473,39.0872-12.5916,58.3884.0699,16.3876,8.9115,31.2223,26.5149,30.8773,16.1558-.4828,29.9481-10.2528,43.5593-18.1221,71.08-43.6453,77.8107-53.5016,150.0346-3.0362,10.4937,6.8792,21.5206,14.0824,33.9909,16.4733,23.4644,4.2515,34.0521-12.4277,32.7936-34.1189-1.2117-22.1545-7.1017-43.6864-12.1415-65.1805-4.5432-17.9281-9.2195-38.2368.862-55.1344,5.0814-8.9383,12.6736-16.2629,20.2209-23.189,15.9465-14.5723,32.9758-27.5035,48.0352-42.8279,14.1462-14.0919,25.1138-36.1178,5.8914-51.1688l-.1457-.1117ZM237.087,225.167c.1339-.2204.829-1.2385.6608-.9683-.1023.1686-.6819,1.0248-.6807,1.0046l.0199-.0363ZM294.215,456.019c-.0539-.2052-.1455-.8995-.0779-.6101.0459.1944.1144.671.0984.6674l-.0205-.0573Z" style="fill: url(#Degradado_sin_nombre_17);"/>
  <path d="M205.8055,195.9547l-.7,1.04c.18-.31.41-.66.7-1.04Z" style="fill: #008df2;"/>
</svg>
